:SAMPLES-PER-SECOND 30
:FULLY-SPECIFIED
:DEGREES
642
root  65.2091 37.3327 -8.16478 -155.093 -13.886 170.411
RightUpLeg  -13.3835 -34.6652 -1.15354
RightLeg  64.3526 0.914298 1.50208
RightFoot  0.200799 -1.78505 17.5707
RightToes  -2.32831e-009 0 -3.6325e-017
Spine  39.7046 2.60416 16.6394
Spine1  0.27227 15.0166 -33.3335
HEad  -139.743 -10.031 -5.65977
LeftShoulder1  1.03856 0.0869587 -24.0507
LeftArm  17.7742 8.49912 -44.2365
LeftForeArm  46.4816 -67.5885 -22.3847
LeftHand  -0.0082077 4.53585 -1.32752
RightShoulder  0.604616 5.63037 -1.07845
RightArm  68.2818 47.8057 118.565
RightForeArm  26.2199 28.1813 4.66059
RightHand  0.247085 9.69867 1.51803
LeftUpLeg  -44.2005 -17.5096 -3.72426
LeftLeg  20.4159 -24.1578 -9.26074
LeftFoot  5.10786 -0.458779 2.96029
LeftToes  8.91272e-011 -1.70619e-011 7.36378e-012
643
root  65.8075 37.3472 -8.3666 -154.358 -15.9474 169.174
RightUpLeg  -18.8804 -33.9517 -4.81721
RightLeg  68.7517 -0.0122537 -0.78191
RightFoot  -0.648447 -1.42627 15.0843
RightToes  -2.32831e-009 0 -3.6325e-017
Spine  42.3774 2.2184 15.0079
Spine1  1.51728 14.4482 -29.7101
HEad  -142.962 -12.5369 -11.3397
LeftShoulder1  0.900432 0.621311 -25.1981
LeftArm  11.9613 8.78223 -44.7583
LeftForeArm  32.8033 -54.9399 -13.0288
LeftHand  -0.0477757 6.17834 1.44399
RightShoulder  0.809575 1.17151 9.22289
RightArm  63.7132 42.5139 104.377
RightForeArm  18.4722 27.5172 4.9347
RightHand  -0.122096 9.85074 -1.35153
LeftUpLeg  -43.5933 -16.9416 -5.07019
LeftLeg  19.4583 -23.8179 -8.54658
LeftFoot  5.32266 -0.377576 2.35584
LeftToes  8.91272e-011 -1.70619e-011 7.36378e-012
644
root  66.369 37.3063 -8.54997 -153.607 -18.2592 168.728
RightUpLeg  -24.5998 -33.208 -7.5202
RightLeg  70.9352 -0.636996 -2.91664
RightFoot  -2.79834 -0.971867 12.7034
RightToes  -2.32831e-009 0 -3.6325e-017
Spine  43.7914 1.15717 13.5658
Spine1  2.6338 12.5328 -25.2659
HEad  -146.043 -11.0227 -17.9307
LeftShoulder1  0.738391 1.34229 -27.9533
LeftArm  7.51497 9.9892 -41.6911
LeftForeArm  24.4858 -44.5391 -9.26987
LeftHand  0.00653647 5.89716 6.874
RightShoulder  0.702684 0.372208 10.9456
RightArm  42.6947 39.1669 90.3567
RightForeArm  18.8201 26.8947 4.77491
RightHand  -0.216722 10.1882 -2.00074
LeftUpLeg  -43.496 -15.353 -6.12148
LeftLeg  19.4286 -23.9791 -8.53338
LeftFoot  5.32496 -0.434689 2.74827
LeftToes  8.91272e-011 -1.70619e-011 7.36378e-012
645
root  66.8619 37.246 -8.72562 -152.796 -19.9783 168.485
RightUpLeg  -30.3873 -32.4247 -10.0926
RightLeg  70.5897 -1.11892 -4.37478
RightFoot  -5.04473 -0.620783 10.6361
RightToes  -2.32831e-009 0 -3.6325e-017
Spine  44.5702 -0.00121459 13.3853
Spine1  3.67756 11.1574 -23.0305
HEad  -149.871 -12.3925 -17.8885
LeftShoulder1  0.886644 0.878691 -27.6501
LeftArm  7.11375 11.2269 -39.5346
LeftForeArm  20.883 -35.8454 -6.82929
LeftHand  0.0993498 9.31995 4.19558
RightShoulder  0.564288 -0.429235 11.2489
RightArm  17.242 36.2389 76.7871
RightForeArm  16.9266 26.0078 4.7356
RightHand  -0.457715 12.8367 -3.3457
LeftUpLeg  -44.1627 -14.5507 -5.921
LeftLeg  20.1853 -26.1186 -9.72126
LeftFoot  4.92675 -0.420506 2.72601
LeftToes  8.91272e-011 -1.70619e-011 7.36378e-012
646
root  67.3897 37.2913 -8.92913 -153.022 -20.1258 168.65
RightUpLeg  -35.307 -30.6043 -12.4587
RightLeg  67.3136 -2.09705 -6.19507
RightFoot  -6.31944 -0.415689 8.54048
RightToes  -2.32831e-009 0 -3.6325e-017
Spine  46.4201 -0.0933602 11.6209
Spine1  3.77888 9.98002 -20.0121
HEad  -152.115 -11.4794 -19.5526
LeftShoulder1  0.884555 0.959799 -28.6614
LeftArm  12.7734 12.1474 -35.7343
LeftForeArm  19.2144 -29.4571 -5.32728
LeftHand  0.071599 11.3602 2.40838
RightShoulder  0.49887 -0.794658 11.3526
RightArm  -3.5691 34.9329 64.5683
RightForeArm  8.24805 21.991 3.89368
RightHand  -0.566072 14.2357 -3.79149
LeftUpLeg  -44.2679 -16.0668 -3.79126
LeftLeg  19.8345 -24.0023 -8.68807
LeftFoot  4.24455 -0.282349 1.87977
LeftToes  8.91272e-011 -1.70619e-011 7.36378e-012
647
root  67.8964 37.2871 -9.1196 -153.826 -20.679 169.036
RightUpLeg  -38.9252 -29.7279 -13.9137
RightLeg  61.2152 -3.2014 -6.81321
RightFoot  -7.64167 -0.31795 8.20488
RightToes  -2.32831e-009 0 -3.6325e-017
Spine  47.7187 -1.32738 12.2236
Spine1  4.715 9.0809 -19.6285
HEad  -153.844 -11.6332 -20.029
LeftShoulder1  0.927134 0.786747 -28.0102
LeftArm  18.5057 12.9118 -33.6388
LeftForeArm  19.5833 -25.1764 -4.35796
LeftHand  -0.0996512 11.0151 -0.635028
RightShoulder  0.40533 -1.37831 12.1706
RightArm  -17.4896 35.5657 53.1465
RightForeArm  0.490882 15.8175 0.0343553
RightHand  -0.386958 14.1918 -2.72765
LeftUpLeg  -43.8288 -14.7377 -3.25944
LeftLeg  21.0305 -24.7743 -9.80493
LeftFoot  3.57136 -0.270896 1.9016
LeftToes  8.91272e-011 -1.70619e-011 7.36378e-012
648
root  68.3874 37.2099 -9.32458 -154.227 -20.4459 169.146
RightUpLeg  -42.1824 -27.5998 -14.8842
RightLeg  52.0701 -3.59814 -5.39094
RightFoot  -8.14404 -0.262202 7.46907
RightToes  -2.32831e-009 0 -3.6325e-017
Spine  48.2447 -1.75619 12.4924
Spine1  5.43176 8.7667 -19.316
HEad  -154.526 -11.8456 -20.7739
LeftShoulder1  0.920577 0.744595 -27.2388
LeftArm  20.9439 14.0715 -32.7718
LeftForeArm  22.2408 -22.9234 -3.90605
LeftHand  -0.324522 11.4071 -4.90562
RightShoulder  0.321865 -1.90084 13.2699
RightArm  -22.1721 37.0413 40.9511
RightForeArm  -6.8158 7.64946 -4.72876
RightHand  -0.211736 13.1547 -1.76878
LeftUpLeg  -44.2492 -15.5345 -1.7746
LeftLeg  22.1423 -22.3973 -9.37682
LeftFoot  2.40392 -0.196418 1.51443
LeftToes  8.91272e-011 -1.70619e-011 7.36378e-012
649
root  68.9255 37.0352 -9.56587 -154.885 -19.8282 169.147
RightUpLeg  -43.486 -24.3646 -15.7894
RightLeg  39.7027 -1.86049 -2.05556
RightFoot  -7.73312 -0.326277 8.69326
RightToes  -2.32831e-009 0 -3.6325e-017
Spine  49.2956 -1.23512 11.9673
Spine1  4.25055 8.63284 -18.1288
HEad  -152.914 -11.5857 -22.3799
LeftShoulder1  0.963677 0.70415 -28.3325
LeftArm  20.3147 16.1903 -30.5619
LeftForeArm  25.8138 -22.2789 -3.93218
LeftHand  -0.382333 11.208 -6.14222
RightShoulder  0.297911 -2.03303 13.6464
RightArm  -25.3464 36.005 28.8818
RightForeArm  -16.8015 0.144436 -5.2001
RightHand  -0.142255 13.3802 -1.32699
LeftUpLeg  -45.0232 -16.866 -0.0778799
LeftLeg  24.3835 -18.9051 -8.81046
LeftFoot  0.468592 -0.126023 1.16464
LeftToes  8.91272e-011 -1.70619e-011 7.36378e-012
650
root  69.4998 36.7981 -9.87676 -156.482 -19.9813 169.51
RightUpLeg  -43.2341 -21.6965 -15.7705
RightLeg  31.0771 1.19464 0.649293
RightFoot  -5.22678 -0.470042 7.97429
RightToes  -2.32831e-009 0 -3.6325e-017
Spine  49.928 -1.30861 12.9005
Spine1  3.26863 8.50483 -17.8683
HEad  -150.96 -10.9598 -21.9667
LeftShoulder1  1.15369 0.108874 -27.855
LeftArm  16.6669 19.0056 -29.3249
LeftForeArm  27.2264 -22.734 -3.77128
LeftHand  -0.400394 10.741 -7.06659
RightShoulder  0.187077 -2.63064 15.0099
RightArm  -26.7257 32.1029 19.4879
RightForeArm  -24.0305 -0.136453 -4.68516
RightHand  -0.109817 13.8468 -1.11203
LeftUpLeg  -45.1994 -18.3935 2.03229
LeftLeg  27.5217 -16.7791 -9.00878
LeftFoot  -2.11258 -0.0291022 0.579083
LeftToes  8.91272e-011 -1.70619e-011 7.36378e-012
651
root  70.0703 36.2952 -10.2542 -158.729 -21.0403 169.91
RightUpLeg  -43.2711 -20.6837 -15.5078
RightLeg  37.3418 1.86434 1.22568
RightFoot  -7.81905 -0.242483 6.34781
RightToes  -2.32831e-009 0 -3.6325e-017
Spine  49.3632 -2.43675 13.9647
Spine1  3.27231 7.49579 -18.1555
HEad  -148.7 -9.14738 -21.4169
LeftShoulder1  0.977033 0.59201 -27.4504
LeftArm  12.5586 21.8184 -28.4316
LeftForeArm  26.2426 -24.321 -3.79337
LeftHand  -0.311094 10.8582 -5.09117
RightShoulder  0.129224 -2.904 15.7427
RightArm  -26.9586 28.0843 13.5086
RightForeArm  -22.8192 5.85521 -3.82639
RightHand  -0.304864 13.5066 -2.31118
LeftUpLeg  -45.6628 -17.635 2.45176
LeftLeg  34.18 -16.8415 -11.6102
LeftFoot  -5.08186 -0.0362857 1.19065
LeftToes  8.91272e-011 -1.70619e-011 7.36378e-012
652
root  70.657 35.9985 -10.6589 -161.608 -19.8659 170.229
RightUpLeg  -42.1258 -17.913 -15.7719
RightLeg  40.9011 1.30605 0.932092
RightFoot  -9.44909 -0.172875 6.40621
RightToes  -2.32831e-009 0 -3.6325e-017
Spine  49.6369 -1.57349 13.3117
Spine1  3.28353 7.89668 -17.4206
HEad  -145.578 -7.34111 -22.0381
LeftShoulder1  1.01919 0.396847 -26.6426
LeftArm  6.7628 23.9437 -30.152
LeftForeArm  27.1545 -26.1213 -4.16096
LeftHand  -0.255374 10.5568 -4.25214
RightShoulder  0.0126873 -3.42935 17.1056
RightArm  -31.8427 24.5687 6.92794
RightForeArm  -17.6734 13.2936 -2.23619
RightHand  -0.338764 13.6533 -2.50743
LeftUpLeg  -44.6773 -16.582 2.41964
LeftLeg  39.0684 -14.397 -11.855
LeftFoot  -6.59193 0.0198058 0.447905
LeftToes  8.91272e-011 -1.70619e-011 7.36378e-012
